<svg width="67" height="66" fill="none" xmlns="http://www.w3.org/2000/svg"><path d="M5.087 64.375v1.472H0v-7.62h1.72v6.148h3.367ZM6.194 58.228h1.72v7.619h-1.72v-7.62ZM14.778 65.847a46.307 46.307 0 0 0-1.59-2.591 28.795 28.795 0 0 0-1.825-2.414v4.993H9.667v-7.607h1.402c.247.247.506.541.8.895.295.353.59.73.895 1.13.307.4.613.813.907 1.248.306.424.589.836.848 1.237v-4.51h1.707v7.619h-1.448ZM22.479 65.847a16.172 16.172 0 0 0-.542-.801 19.92 19.92 0 0 0-.683-.872 10.41 10.41 0 0 0-.765-.836 7.11 7.11 0 0 0-.789-.706v3.226h-1.72v-7.63h1.72v2.861c.436-.459.895-.954 1.342-1.448.46-.506.872-.977 1.26-1.413h2.038a46.806 46.806 0 0 1-1.567 1.778 74.13 74.13 0 0 1-1.66 1.72 12.336 12.336 0 0 1 1.766 1.813 24.149 24.149 0 0 1 1.637 2.308H22.48ZM25.506 65.847v-7.62h5.146v1.437h-3.427v1.496h3.05v1.413h-3.05v1.837h3.686v1.437h-5.405ZM38.847 62.032c0 .66-.105 1.236-.306 1.73-.2.495-.494.896-.871 1.225a3.848 3.848 0 0 1-1.378.73 6.276 6.276 0 0 1-1.825.248c-.306 0-.671-.012-1.083-.035a8.357 8.357 0 0 1-1.213-.165v-7.43c.4-.071.812-.118 1.236-.154.424-.023.801-.035 1.107-.035.648 0 1.248.07 1.778.224.53.141.99.377 1.366.695.377.317.671.718.883 1.212.2.471.306 1.06.306 1.755Zm-4.957 2.414a2.1 2.1 0 0 0 .283.012h.377c.86 0 1.495-.212 1.907-.648.412-.436.624-1.025.624-1.79 0-.8-.2-1.401-.589-1.813-.4-.412-1.024-.613-1.884-.613h-.365c-.13 0-.247.012-.353.024v4.828ZM45.677 58.228v1.46H43.38v6.159h-1.719v-6.16h-2.296v-1.46h6.312ZM46.784 65.847v-7.62h5.146v1.437h-3.427v1.496h3.05v1.413h-3.05v1.837h3.686v1.437h-5.405ZM56.922 66c-1.236 0-2.178-.341-2.838-1.036-.647-.695-.977-1.672-.977-2.932 0-.636.094-1.19.294-1.684.2-.495.471-.919.813-1.248a3.35 3.35 0 0 1 1.236-.778c.471-.176.99-.259 1.554-.259a5.163 5.163 0 0 1 1.579.236c.2.059.364.13.494.188.13.071.224.118.283.154l-.495 1.389a3.54 3.54 0 0 0-.824-.318 4.147 4.147 0 0 0-1.06-.13c-.26 0-.518.048-.777.13a1.708 1.708 0 0 0-.671.424c-.2.2-.354.447-.471.754-.118.306-.177.683-.177 1.118 0 .353.035.683.118.99.082.306.2.565.377.788.176.224.4.389.67.519.283.129.613.188 1.013.188.248 0 .471-.012.672-.047.2-.024.376-.06.53-.106.153-.035.294-.083.412-.142a4.22 4.22 0 0 0 .318-.14l.47 1.377a4.417 4.417 0 0 1-1.024.4 6.45 6.45 0 0 1-1.519.165ZM65.177 58.228h1.72v7.619h-1.72v-3.239h-2.885v3.239h-1.72v-7.62h1.72v2.921h2.885v-2.92Z" fill="#247CC0"/><path d="M21.844 11.182a6.07 6.07 0 0 1 1.307-3.073l-1.755-1.826-5.405 3.12c-.624.366-1.189 1.037-1.542 1.779h7.395Z" fill="#262262"/><path d="m33.443 31.495-4.357-13.483a5.94 5.94 0 0 1-1.13.106c-.743 0-1.45-.13-2.109-.377l-4.25 8.22c.6.553.989 1.354.989 2.237 0 .118-.012.235-.024.353l9.832 3.933c.271-.389.636-.73 1.049-.99Z" fill="#1C75BC"/><path d="M19.56 25.184c.224 0 .436.023.648.07l4.25-8.219a6.135 6.135 0 0 1-2.602-4.286h-7.772V18.542l4.522 6.795c.294-.095.612-.153.954-.153Z" fill="#2B3990"/><path d="M35.233 31c.259 0 .518.036.765.083l5.24-10.892a4.455 4.455 0 0 1-1.86-3.639c0-.153.011-.318.023-.47l-5.793-1.673a6.154 6.154 0 0 1-3.027 3.12l4.357 13.483c.094 0 .2-.011.295-.011Z" fill="#1C75BC"/><path d="M46.42 20.226c-.248.177-.519.33-.813.448l1.166 5.04a2.506 2.506 0 0 1 2.272 2.484c0 .4-.094.789-.27 1.13l3.38 3.38c.4-.648.658-1.39.658-2.049v-4.027l-6.394-6.406ZM31.759 34.474c0-.176.011-.353.035-.53l-9.82-3.933a3.138 3.138 0 0 1-.849.778l2.167 7.43 4.498 2.59 4.498-4.498a3.489 3.489 0 0 1-.53-1.837ZM45.242 26.066l-1.166-5.04h-.224c-.412 0-.824-.058-1.2-.164l-5.24 10.892c.14.118.282.247.4.377l6.276-3.474a3.033 3.033 0 0 1-.047-.471c0-.883.482-1.684 1.2-2.12Z" fill="#2EA8E0"/><path d="m51.565 9.958-4.039 4.038c.506.73.813 1.614.813 2.568 0 .953-.295 1.837-.813 2.567l5.287 5.287V12.772c0-.954-.518-2.073-1.248-2.814Z" fill="#1C75BC"/><path d="M37.07 37.418c-.53.33-1.166.53-1.837.53a3.386 3.386 0 0 1-1.837-.53l-4.204 4.204 2.308 1.33c1.071.613 2.814.613 3.874 0l4.58-2.649-2.885-2.885Z" fill="#5DCBEC"/><path d="M19.618 31.224h-.058a3.025 3.025 0 0 1-3.027-3.026c0-.765.283-1.46.754-2.002l-3.215-4.828v9.28c0 1.236.872 2.743 1.943 3.355l5.323 3.074-1.72-5.853Z" fill="#1C75BC"/><path d="M47.667 30.435a2.58 2.58 0 0 1-1.13.271c-.66 0-1.248-.247-1.696-.66l-6.276 3.474c.083.307.13.624.13.954 0 .671-.189 1.307-.53 1.837l3.19 3.191 9.504-5.487c.07-.047.153-.094.223-.141l-3.415-3.439Z" fill="#5DCBEC"/><path d="M34.114 11.971c0 .318-.024.636-.071.942l5.794 1.672a4.48 4.48 0 0 1 2.85-2.343l-.72-7.972-6.11-3.532L31.84 7.19a6.14 6.14 0 0 1 2.273 4.78Z" fill="#2B3990"/><path d="M24.293 7.026a6.112 6.112 0 0 1 3.674-1.213c.907 0 1.778.2 2.555.553L34.408.102c-.977-.212-2.12-.094-2.897.365l-8.69 5.016 1.472 1.543Z" fill="#262262"/><path d="m50.258 9.052-6.63-3.827.613 6.877c.8.07 1.554.353 2.178.788l3.84-3.838Z" fill="#2B3990"/><path d="m22.562 28.563 9.833 3.933c.282-.4.636-.742 1.06-.989l-3.863-11.952a38.167 38.167 0 0 0-7.772 6.653c.471.53.766 1.237.766 2.014 0 .106-.012.223-.024.341Z" fill="url(#a)"/><path d="M35.233 31c.259 0 .518.036.765.083l5.24-10.893a4.455 4.455 0 0 1-1.86-3.638c0-.153.012-.318.023-.471l-1.742-.506a38.534 38.534 0 0 0-6.7 3.108L34.938 31c.094.012.2 0 .294 0Z" fill="url(#b)"/><path d="m45.607 20.685 1.166 5.04a2.506 2.506 0 0 1 2.272 2.485c0 .4-.094.789-.27 1.13l3.38 3.38c.4-.648.658-1.39.658-2.05v-4.026L46.42 20.25a6.584 6.584 0 0 1-.812.435Z" fill="url(#c)"/><path d="M31.76 34.474c0-.177.01-.353.034-.53l-9.82-3.933a3.138 3.138 0 0 1-.848.777l2.167 7.43 4.498 2.591 4.498-4.498a3.489 3.489 0 0 1-.53-1.837Z" fill="url(#d)"/><path d="m37.812 32.154 6.276-3.474c-.023-.153-.047-.306-.047-.47 0-.907.483-1.696 1.201-2.144l-1.165-5.04h-.224c-.412 0-.825-.058-1.201-.164l-5.24 10.892c.14.13.27.259.4.4Z" fill="url(#e)"/><path d="M48.34 16.564c0 .954-.295 1.837-.813 2.567l5.287 5.287V13.549a36.786 36.786 0 0 0-2.555-.082c-.754 0-1.508.023-2.25.07l-.47.471c.494.719.8 1.602.8 2.556Z" fill="url(#f)"/><path d="M35.233 37.948a3.386 3.386 0 0 1-1.837-.53l-4.204 4.204 2.308 1.33c1.072.613 2.815.613 3.874 0l4.581-2.649-2.897-2.897a3.232 3.232 0 0 1-1.825.542Z" fill="url(#g)"/><path d="M19.619 31.224h-.06c-.482 0-.941-.118-1.342-.318a39.367 39.367 0 0 0-1.896 3.274l5.005 2.896-1.707-5.852Z" fill="url(#h)"/><path d="M46.549 30.706a2.48 2.48 0 0 1-1.696-.66l-6.276 3.474c.082.307.13.624.13.954 0 .671-.189 1.307-.53 1.837l3.19 3.191 9.504-5.487c.07-.047.153-.094.223-.141l-3.426-3.427a2.56 2.56 0 0 1-1.119.26Z" fill="url(#i)"/><defs><linearGradient id="a" x1="25.183" y1="22.424" x2="30.076" y2="31.397" gradientUnits="userSpaceOnUse"><stop stop-color="#fff" stop-opacity=".4"/><stop offset="1" stop-color="#fff" stop-opacity="0"/></linearGradient><linearGradient id="b" x1="33.948" y1="17.643" x2="38.842" y2="26.615" gradientUnits="userSpaceOnUse"><stop stop-color="#fff" stop-opacity=".4"/><stop offset="1" stop-color="#fff" stop-opacity="0"/></linearGradient><linearGradient id="c" x1="42.576" y1="12.937" x2="47.47" y2="21.909" gradientUnits="userSpaceOnUse"><stop stop-color="#fff" stop-opacity=".4"/><stop offset="1" stop-color="#fff" stop-opacity="0"/></linearGradient><linearGradient id="d" x1="21.263" y1="24.562" x2="26.157" y2="33.534" gradientUnits="userSpaceOnUse"><stop stop-color="#fff" stop-opacity=".4"/><stop offset="1" stop-color="#fff" stop-opacity="0"/></linearGradient><linearGradient id="e" x1="35.506" y1="16.793" x2="40.4" y2="25.766" gradientUnits="userSpaceOnUse"><stop stop-color="#fff" stop-opacity=".4"/><stop offset="1" stop-color="#fff" stop-opacity="0"/></linearGradient><linearGradient id="f" x1="47.004" y1="10.522" x2="51.898" y2="19.494" gradientUnits="userSpaceOnUse"><stop stop-color="#fff" stop-opacity=".4"/><stop offset="1" stop-color="#fff" stop-opacity="0"/></linearGradient><linearGradient id="g" x1="24.628" y1="22.726" x2="29.522" y2="31.699" gradientUnits="userSpaceOnUse"><stop stop-color="#fff" stop-opacity=".4"/><stop offset="1" stop-color="#fff" stop-opacity="0"/></linearGradient><linearGradient id="h" x1="15.3" y1="27.815" x2="20.194" y2="36.787" gradientUnits="userSpaceOnUse"><stop stop-color="#fff" stop-opacity=".4"/><stop offset="1" stop-color="#fff" stop-opacity="0"/></linearGradient><linearGradient id="i" x1="34.854" y1="17.149" x2="39.748" y2="26.121" gradientUnits="userSpaceOnUse"><stop stop-color="#fff" stop-opacity=".4"/><stop offset="1" stop-color="#fff" stop-opacity="0"/></linearGradient></defs></svg>